<?xml version="1.0" encoding="utf-8"?>
<svg viewBox="0 0 500 500" xmlns="http://www.w3.org/2000/svg">
  <rect x="34.375" y="92.391" width="79.358" height="135.508" style="fill: rgb(216, 216, 216);"/>
  <rect x="113.733" width="72.218" height="253.078" style="fill: rgb(216, 216, 216);"/>
  <rect x="185.951" y="40.895" width="73.434" height="159.105" style="fill: rgb(216, 216, 216);"/>
  <rect x="259.385" y="74.84" width="69.66" height="178.238" style="fill: rgb(216, 216, 216);"/>
  <rect x="329.045" y="20.526" width="69.66" height="279.474" style="fill: rgb(216, 216, 216);"/>
  <rect x="398.705" y="74.84" width="69.66" height="214.742" style="fill: rgb(216, 216, 216);"/>
  <ellipse style="fill: rgb(210, 180, 140);" cx="250" cy="274.186" rx="250" ry="154.184"/>
  <polygon style="fill: rgb(216, 216, 216); stroke: rgb(0, 0, 0);" points="79.548 339.559"/>
  <g transform="matrix(0.300168, 0, 0, 0.300168, 354.766479, 143.186356)" style="">
    <g transform="translate(-42.339 -276.34)">
      <path d="m437.15 499.44zl-162.81-144.19-162.91 144.25v206.12c0 5.3234 4.3016 9.5938 9.625 9.5938h101.81v-90.375c0-5.3234 4.2704-9.625 9.5938-9.625h83.656c5.3234 0 9.5938 4.3016 9.5938 9.625v90.375h101.84c5.3234 0 9.5938-4.2704 9.5938-9.5938v-206.19zm-325.72 0.0625z"/>
      <path d="m273.39 276.34-231.05 204.58 24.338 27.457 207.66-183.88 207.61 183.88 24.291-27.457-231-204.58-0.89792 1.0397-0.94518-1.0397z"/>
    </g>
  </g>
  <g transform="matrix(0.300168, 0, 0, 0.300168, -0.000304, 143.186371)" style="">
    <g transform="translate(-42.339 -276.34)">
      <path d="m437.15 499.44zl-162.81-144.19-162.91 144.25v206.12c0 5.3234 4.3016 9.5938 9.625 9.5938h101.81v-90.375c0-5.3234 4.2704-9.625 9.5938-9.625h83.656c5.3234 0 9.5938 4.3016 9.5938 9.625v90.375h101.84c5.3234 0 9.5938-4.2704 9.5938-9.5938v-206.19zm-325.72 0.0625z"/>
      <path d="m273.39 276.34-231.05 204.58 24.338 27.457 207.66-183.88 207.61 183.88 24.291-27.457-231-204.58-0.89792 1.0397-0.94518-1.0397z"/>
    </g>
  </g>
  <g transform="matrix(0.300168, 0, 0, 0.300168, 185.950699, 74.840004)" style="">
    <g transform="translate(-42.339 -276.34)">
      <path d="m437.15 499.44zl-162.81-144.19-162.91 144.25v206.12c0 5.3234 4.3016 9.5938 9.625 9.5938h101.81v-90.375c0-5.3234 4.2704-9.625 9.5938-9.625h83.656c5.3234 0 9.5938 4.3016 9.5938 9.625v90.375h101.84c5.3234 0 9.5938-4.2704 9.5938-9.5938v-206.19zm-325.72 0.0625z"/>
      <path d="m273.39 276.34-231.05 204.58 24.338 27.457 207.66-183.88 207.61 183.88 24.291-27.457-231-204.58-0.89792 1.0397-0.94518-1.0397z"/>
    </g>
  </g>
  <g transform="matrix(0.300168, 0, 0, 0.300168, 185.950699, 268.26416)" style="">
    <g transform="translate(-42.339 -276.34)">
      <path d="m437.15 499.44zl-162.81-144.19-162.91 144.25v206.12c0 5.3234 4.3016 9.5938 9.625 9.5938h101.81v-90.375c0-5.3234 4.2704-9.625 9.5938-9.625h83.656c5.3234 0 9.5938 4.3016 9.5938 9.625v90.375h101.84c5.3234 0 9.5938-4.2704 9.5938-9.5938v-206.19zm-325.72 0.0625z"/>
      <path d="m273.39 276.34-231.05 204.58 24.338 27.457 207.66-183.88 207.61 183.88 24.291-27.457-231-204.58-0.89792 1.0397-0.94518-1.0397z"/>
    </g>
  </g>
</svg>